<?xml version="1.0" encoding="utf-8"?>
<!-- Generated by IcoMoon.io -->
<!DOCTYPE svg PUBLIC "-//W3C//DTD SVG 1.1//EN" "http://www.w3.org/Graphics/SVG/1.1/DTD/svg11.dtd">
<svg version="1.1" xmlns="http://www.w3.org/2000/svg" xmlns:xlink="http://www.w3.org/1999/xlink" width="32" height="32" viewBox="0 0 32 32">
<path fill="#444444" d="M22.104 7.488c-1.768-1.8-4.136-2.792-6.656-2.792-5.112 0-9.272 4.16-9.272 9.272 0 8.096 8.472 13 8.832 13.2 0.136 0.080 0.288 0.12 0.448 0.12s0.328-0.048 0.472-0.136c0.352-0.216 8.672-5.384 8.8-13.176 0.032-2.424-0.896-4.728-2.624-6.488zM15.424 25.328c-1.696-1.104-7.456-5.296-7.456-11.344 0-4.12 3.352-7.472 7.472-7.472 2.040 0 3.944 0.8 5.376 2.248 1.384 1.408 2.128 3.256 2.096 5.208-0.096 5.816-5.808 10.2-7.488 11.36z"></path>
<path fill="#444444" d="M15.44 10.368c-2.152 0-3.904 1.752-3.904 3.904s1.752 3.904 3.904 3.904 3.904-1.752 3.904-3.904-1.744-3.904-3.904-3.904zM15.44 16.376c-1.16 0-2.104-0.944-2.104-2.104s0.944-2.104 2.104-2.104c1.16 0 2.104 0.944 2.104 2.104s-0.944 2.104-2.104 2.104z"></path>
</svg>
