<svg xmlns="http://www.w3.org/2000/svg" viewBox="0 0 143.241 34">
    <defs>
        <style>
            .cls-1{fill:#fff}
        </style>
    </defs>
    <path id="fromAtoB_Logo" d="M-.658 2.332h-2.857V12.62h-4.617V2.332H-10V-.042l1.868-1.131V-1.4c0-1.809.33-3.165 1.1-3.957A4.606 4.606 0 0 1-3.515-6.6a8.641 8.641 0 0 1 1.759.113 16.6 16.6 0 0 1 1.868.567l-.989 3.052a8.262 8.262 0 0 0-1.649-.226.846.846 0 0 0-.769.339 2.491 2.491 0 0 0-.22 1.131v.339h2.857zm9.233-3.843a4.387 4.387 0 0 1 1.209.111H10l-.44 4.522a5.682 5.682 0 0 0-1.539-.113 3.036 3.036 0 0 0-2.2.678 2.7 2.7 0 0 0-.769 2.148v6.785H.441V-1.285h3.518L4.728.976h.22A4.08 4.08 0 0 1 6.487-.833a3.809 3.809 0 0 1 2.088-.678zm15.058 7.122a7.35 7.35 0 0 1-1.759 5.313 6.613 6.613 0 0 1-4.946 1.922 6.789 6.789 0 0 1-4.946-1.922 7.532 7.532 0 0 1-1.759-5.313A7.35 7.35 0 0 1 11.982.3a6.613 6.613 0 0 1 4.946-1.922 7.092 7.092 0 0 1 3.517.9 5.559 5.559 0 0 1 2.308 2.487 7.339 7.339 0 0 1 .88 3.846zm-8.683 0a5.724 5.724 0 0 0 .44 2.713 1.553 1.553 0 0 0 1.539.9 1.627 1.627 0 0 0 1.539-.9 6.333 6.333 0 0 0 .44-2.713 6.334 6.334 0 0 0-.44-2.713 1.761 1.761 0 0 0-3.077 0 6.334 6.334 0 0 0-.441 2.713zm26.928 7.009V5.046a5.45 5.45 0 0 0-.33-2.148 1.256 1.256 0 0 0-1.209-.678 1.745 1.745 0 0 0-1.539.9 6.576 6.576 0 0 0-.55 2.939v6.561h-4.725V5.046a5.45 5.45 0 0 0-.33-2.148 1.256 1.256 0 0 0-1.209-.678 1.807 1.807 0 0 0-1.649 1.017 6.471 6.471 0 0 0-.55 3.278v6.1h-4.616v-13.9h3.517l.55 1.7h.22A3.279 3.279 0 0 1 31-1.059a4.975 4.975 0 0 1 2.3-.452c1.978 0 3.3.565 4.067 1.809h.33a3.687 3.687 0 0 1 1.543-1.357 4.8 4.8 0 0 1 2.2-.452 4.606 4.606 0 0 1 3.515 1.243 5.5 5.5 0 0 1 1.1 3.844v9.044zm44.733-3.844a6.351 6.351 0 0 0 2.308-.452v3.5a15.334 15.334 0 0 1-1.759.565 9.6 9.6 0 0 1-1.978.226 4.315 4.315 0 0 1-3.407-1.131 5.635 5.635 0 0 1-.989-3.618v-5.76h-1.759V.184l2.088-1.47 1.209-3.052H85.4v2.826h3.3v3.618h-3.3v5.427a1.116 1.116 0 0 0 1.211 1.243zm16.6-3.392a7.35 7.35 0 0 1-1.759 5.313 6.7 6.7 0 0 1-5.056 1.922 6.613 6.613 0 0 1-4.949-1.919 7.586 7.586 0 0 1-1.868-5.313A7.35 7.35 0 0 1 91.337.071a6.7 6.7 0 0 1 5.056-1.922 7.092 7.092 0 0 1 3.517.9 7.371 7.371 0 0 1 2.418 2.487 8.579 8.579 0 0 1 .88 3.849zm-8.793 0a5.724 5.724 0 0 0 .44 2.713 1.553 1.553 0 0 0 1.539.9 1.627 1.627 0 0 0 1.539-.9 6.334 6.334 0 0 0 .44-2.713 6.021 6.021 0 0 0-.44-2.713 1.761 1.761 0 0 0-3.077 0 5.724 5.724 0 0 0-.444 2.714zM62.871 23.925l-9.562-9.948a14.485 14.485 0 0 1 0-19.9 13.081 13.081 0 0 1 19.124 0 14.485 14.485 0 0 1 0 19.9zM65.4 9.228l.769 2.939h4.4L65.618-4.451h-5.385l-4.946 16.732h4.506l.659-3.052zm-.881-3.278h-3.3c.659-2.6 1.1-4.409 1.209-5.2a8.757 8.757 0 0 0 .33-1.922c.11.452.22 1.131.44 2.035.22 1.017.44 1.7.55 2.374zm55.395 17.975l-9.452-9.948a14.71 14.71 0 0 1 0-19.9 12.83 12.83 0 0 1 18.9 0 14.71 14.71 0 0 1 0 19.9zm6.155-18.993a3.162 3.162 0 0 0-2.088-1.357V3.35a2.868 2.868 0 0 0 1.759-1.244 4.267 4.267 0 0 0 .66-2.374 3.563 3.563 0 0 0-1.539-3.165 8.7 8.7 0 0 0-4.726-1.017h-5.386v16.731h6.045a6.138 6.138 0 0 0 4.287-1.357 4.269 4.269 0 0 0 1.539-3.618 3.338 3.338 0 0 0-.551-2.374zm-5.605 3.844h-1.429v-3.5h1.429a2.108 2.108 0 0 1 1.536.448 1.639 1.639 0 0 1 .55 1.244c-.108 1.243-.767 1.808-2.086 1.808zm-1.539-9.835h1.209q1.978 0 1.978 1.357a1.258 1.258 0 0 1-.55 1.131 2.4 2.4 0 0 1-1.429.452h-1.319v-2.94z" class="cls-1" data-name="fromAtoB Logo" transform="translate(10 10.075)"/>
</svg>
