<svg width="0" height="0" class="hidden">
  <symbol xmlns="http://www.w3.org/2000/svg" viewBox="0 0 32 32" id="icon-calendar-going">
    <path fill="#444" d="M23.304 24.008h.024c-.008-.008-.016-.016-.024-.016v.016zM6.728 14.112H5.624c-.408 0-.744.328-.744.744s.328.744.744.744h1.104c.408 0 .744-.328.744-.744s-.336-.744-.744-.744zm2.96 0H8.584c-.408 0-.744.328-.744.744s.328.744.744.744h1.104c.408 0 .744-.328.744-.744s-.336-.744-.744-.744zm2.952 0h-1.104c-.408 0-.744.328-.744.744s.328.744.744.744h1.104c.408 0 .744-.328.744-.744s-.336-.744-.744-.744zm2.96 0h-1.104c-.408 0-.744.328-.744.744s.328.744.744.744H15.6c.408 0 .744-.328.744-.744s-.336-.744-.744-.744zm-8.872 2.12H5.624a.743.743 0 0 0-.744.744c0 .408.328.744.744.744h1.104c.408 0 .744-.328.744-.744s-.336-.744-.744-.744zm2.96 0H8.584a.743.743 0 0 0-.744.744c0 .408.328.744.744.744h1.104a.743.743 0 0 0 .744-.744.748.748 0 0 0-.744-.744zm2.952 0h-1.104a.743.743 0 0 0-.744.744c0 .408.328.744.744.744h1.104c.408 0 .744-.328.744-.744s-.336-.744-.744-.744zm2.96 0h-1.104a.743.743 0 0 0-.744.744c0 .408.328.744.744.744H15.6a.743.743 0 0 0 .744-.744.748.748 0 0 0-.744-.744zm2.952 0h-1.104a.743.743 0 0 0-.744.744c0 .408.328.744.744.744h1.104c.408 0 .744-.328.744-.744s-.336-.744-.744-.744zm-11.824 2.12H5.624a.743.743 0 0 0-.744.744c0 .408.328.744.744.744h1.104c.408 0 .744-.328.744-.744s-.336-.744-.744-.744zm2.96 0H8.584a.743.743 0 0 0-.744.744c0 .408.328.744.744.744h1.104a.743.743 0 0 0 .744-.744.748.748 0 0 0-.744-.744zm2.952 0h-1.104a.743.743 0 0 0-.744.744c0 .408.328.744.744.744h1.104c.408 0 .744-.328.744-.744s-.336-.744-.744-.744zm2.96 0h-1.104a.743.743 0 0 0-.744.744c0 .408.328.744.744.744H15.6a.743.743 0 0 0 .744-.744.748.748 0 0 0-.744-.744zm2.952 0h-1.104a.743.743 0 0 0-.744.744c0 .408.328.744.744.744h1.104c.408 0 .744-.328.744-.744s-.336-.744-.744-.744zM6.728 20.464H5.624c-.408 0-.744.328-.744.744s.328.744.744.744h1.104c.408 0 .744-.328.744-.744s-.336-.744-.744-.744zm2.96 0H8.584c-.408 0-.744.328-.744.744s.328.744.744.744h1.104c.408 0 .744-.328.744-.744s-.336-.744-.744-.744zm2.952 0h-1.104c-.408 0-.744.328-.744.744s.328.744.744.744h1.104c.408 0 .744-.328.744-.744s-.336-.744-.744-.744zm2.96 0h-1.104c-.408 0-.744.328-.744.744s.328.744.744.744H15.6c.408 0 .744-.328.744-.744s-.336-.744-.744-.744zm-8.872 2.12H5.624a.743.743 0 0 0-.744.744c0 .408.328.744.744.744h1.104a.743.743 0 0 0 .744-.744.748.748 0 0 0-.744-.744zm2.96 0H8.584a.743.743 0 0 0-.744.744c0 .408.328.744.744.744h1.104a.743.743 0 0 0 .744-.744.753.753 0 0 0-.744-.744zm2.952 0h-1.104a.743.743 0 0 0-.744.744c0 .408.328.744.744.744h1.104a.743.743 0 0 0 .744-.744.748.748 0 0 0-.744-.744zm17.68-5.208a1.28 1.28 0 0 0-.232-.352c-.016-.016-.024-.04-.04-.056l-4.072-4.08c-.488-.488-1.272-.488-1.76 0s-.488 1.272 0 1.76l1.96 1.96h-5.144c-.688 0-1.24.552-1.24 1.24s.552 1.24 1.24 1.24h5.144l-1.96 1.96a1.24 1.24 0 0 0 .88 2.12c.32 0 .632-.12.88-.36l4.072-4.072c.016-.016.024-.04.04-.056a1.17 1.17 0 0 0 .232-.352c.12-.304.12-.648 0-.952z"></path>
    <path fill="#444" d="M20.408 14.112a.743.743 0 0 0-.744.744.71.71 0 0 0 .184.472c.136.16.328.264.56.264h1.104a.741.741 0 0 0 .608-.344.708.708 0 0 0 .136-.4.743.743 0 0 0-.744-.744h-1.104zm0 7.84h1.104c.408 0 .744-.328.744-.744s-.328-.744-.744-.744h-1.104c-.408 0-.744.328-.744.744s.336.744.744.744zm-1.856-1.488h-1.104c-.408 0-.744.328-.744.744s.328.744.744.744h1.104c.408 0 .744-.328.744-.744s-.336-.744-.744-.744zm.032-6.352h-1.136c-.408 0-.744.328-.744.744s.328.744.744.744h1.136c.408 0 .744-.328.744-.744s-.336-.744-.744-.744z"></path>
    <path fill="#444" d="M24.024 24.008h-.6a.545.545 0 0 0-.544.544v.784h-.032v-.04c-.024.008-.048.024-.072.024H4.52c-.248 0-.528-.312-.528-.752V11.92h18.552c.032.008.056.016.088.016h1.528c.328 0 .6-.272.6-.6v-.152h.024V8.008c0-1.016-.904-1.84-2.008-1.84h-1.88V5.28c0-.8-.656-1.456-1.456-1.456s-1.456.656-1.456 1.456v.896H9.552V5.28c0-.8-.656-1.456-1.456-1.456S6.64 4.48 6.64 5.28v.896H4.52c-1.112 0-2.008.824-2.008 1.84v16.56c0 1.232.904 2.24 2.008 2.24h19.496a.545.545 0 0 0 .544-.544v-1.704a.537.537 0 0 0-.536-.56zM3.992 8.016c0-.168.224-.352.528-.352h2.12v.168c0 .8.656 1.456 1.456 1.456s1.456-.656 1.456-1.456v-.168h8.432v.168c0 .8.656 1.456 1.456 1.456s1.456-.656 1.456-1.456v-.168h1.88c.304 0 .528.184.528.352v2.424H3.992V8.016z"></path>
  </symbol>
  <symbol xmlns="http://www.w3.org/2000/svg" viewBox="0 0 32 32" id="icon-location">
    <path fill="#444" d="M22.104 7.488a9.268 9.268 0 0 0-6.656-2.792c-5.112 0-9.272 4.16-9.272 9.272 0 8.096 8.472 13 8.832 13.2.136.08.288.12.448.12s.328-.048.472-.136c.352-.216 8.672-5.384 8.8-13.176.032-2.424-.896-4.728-2.624-6.488zm-6.68 17.84c-1.696-1.104-7.456-5.296-7.456-11.344 0-4.12 3.352-7.472 7.472-7.472 2.04 0 3.944.8 5.376 2.248a7.21 7.21 0 0 1 2.096 5.208c-.096 5.816-5.808 10.2-7.488 11.36z"></path>
    <path fill="#444" d="M15.44 10.368c-2.152 0-3.904 1.752-3.904 3.904s1.752 3.904 3.904 3.904 3.904-1.752 3.904-3.904-1.744-3.904-3.904-3.904zm0 6.008c-1.16 0-2.104-.944-2.104-2.104s.944-2.104 2.104-2.104c1.16 0 2.104.944 2.104 2.104s-.944 2.104-2.104 2.104z"></path>
  </symbol>
  <symbol xmlns="http://www.w3.org/2000/svg" viewBox="0 0 32 32" id="icon-passenger-filled">
    <path fill="#444" d="M15.9 14.6c2.9 0 5.3-2.4 5.3-5.3S18.8 4 15.9 4s-5.3 2.4-5.3 5.3 2.4 5.3 5.3 5.3zm7.7 2.5H8.4c-2.6 0-4.7 1.9-4.7 4.2v5.5c.1.6.6 1.2 1.3 1.2h1.4c.6 0 1.1-.5 1.1-1.1v-3.4c0-.4.4-.8.8-.8s.8.4.8.8V28h13.8v-4.6c0-.4.4-.8.8-.8s.8.4.8.8v3.4c0 .6.5 1.1 1.1 1.1H27c.7 0 1.2-.5 1.2-1.2v-5.5c0-2.2-2.1-4.1-4.6-4.1z"></path>
  </symbol>
  <symbol xmlns="http://www.w3.org/2000/svg" viewBox="0 0 143.241 34" id="logo">
    <path d="M9.342 12.407H6.485v10.288H1.868V12.407H0v-2.374l1.868-1.131v-.227c0-1.809.33-3.165 1.1-3.957a4.606 4.606 0 0 1 3.517-1.243 8.641 8.641 0 0 1 1.759.113 16.6 16.6 0 0 1 1.868.567l-.989 3.052a8.262 8.262 0 0 0-1.649-.226.846.846 0 0 0-.769.339 2.491 2.491 0 0 0-.22 1.131v.339h2.857zm9.233-3.843a4.387 4.387 0 0 1 1.209.111H20l-.44 4.522a5.682 5.682 0 0 0-1.539-.113 3.036 3.036 0 0 0-2.2.678 2.7 2.7 0 0 0-.769 2.148v6.785h-4.611V8.79h3.518l.769 2.261h.22a4.08 4.08 0 0 1 1.539-1.809 3.809 3.809 0 0 1 2.088-.678zm15.058 7.122a7.35 7.35 0 0 1-1.759 5.313 6.613 6.613 0 0 1-4.946 1.922 6.789 6.789 0 0 1-4.946-1.922 7.532 7.532 0 0 1-1.759-5.313 7.35 7.35 0 0 1 1.759-5.311 6.613 6.613 0 0 1 4.946-1.922 7.092 7.092 0 0 1 3.517.9 5.559 5.559 0 0 1 2.308 2.487 7.339 7.339 0 0 1 .88 3.846zm-8.683 0a5.724 5.724 0 0 0 .44 2.713 1.553 1.553 0 0 0 1.539.9 1.627 1.627 0 0 0 1.539-.9 6.333 6.333 0 0 0 .44-2.713 6.334 6.334 0 0 0-.44-2.713 1.761 1.761 0 0 0-3.077 0 6.334 6.334 0 0 0-.441 2.713zm26.928 7.009v-7.574a5.45 5.45 0 0 0-.33-2.148 1.256 1.256 0 0 0-1.209-.678 1.745 1.745 0 0 0-1.539.9 6.576 6.576 0 0 0-.55 2.939v6.561h-4.725v-7.574a5.45 5.45 0 0 0-.33-2.148 1.256 1.256 0 0 0-1.209-.678 1.807 1.807 0 0 0-1.649 1.017 6.471 6.471 0 0 0-.55 3.278v6.1h-4.616V8.79h3.517l.55 1.7h.22A3.279 3.279 0 0 1 41 9.016a4.975 4.975 0 0 1 2.3-.452c1.978 0 3.3.565 4.067 1.809h.33a3.687 3.687 0 0 1 1.543-1.357 4.8 4.8 0 0 1 2.2-.452 4.606 4.606 0 0 1 3.515 1.243 5.5 5.5 0 0 1 1.1 3.844v9.044zm44.733-3.844a6.351 6.351 0 0 0 2.308-.452v3.5a15.334 15.334 0 0 1-1.759.565 9.6 9.6 0 0 1-1.978.226 4.315 4.315 0 0 1-3.407-1.131 5.635 5.635 0 0 1-.989-3.618v-5.76h-1.759v-1.922l2.088-1.47 1.209-3.052H95.4v2.826h3.3v3.618h-3.3v5.427a1.116 1.116 0 0 0 1.211 1.243zm16.6-3.392a7.35 7.35 0 0 1-1.759 5.313 6.7 6.7 0 0 1-5.056 1.922 6.613 6.613 0 0 1-4.949-1.919 7.586 7.586 0 0 1-1.868-5.313 7.35 7.35 0 0 1 1.758-5.316 6.7 6.7 0 0 1 5.056-1.922 7.092 7.092 0 0 1 3.517.9 7.371 7.371 0 0 1 2.418 2.487 8.579 8.579 0 0 1 .88 3.849zm-8.793 0a5.724 5.724 0 0 0 .44 2.713 1.553 1.553 0 0 0 1.539.9 1.627 1.627 0 0 0 1.539-.9 6.334 6.334 0 0 0 .44-2.713 6.021 6.021 0 0 0-.44-2.713 1.761 1.761 0 0 0-3.077 0 5.724 5.724 0 0 0-.444 2.714zM72.871 34l-9.562-9.948a14.485 14.485 0 0 1 0-19.9 13.081 13.081 0 0 1 19.124 0 14.485 14.485 0 0 1 0 19.9zM75.4 19.303l.769 2.939h4.4L75.618 5.624h-5.385l-4.946 16.732h4.506l.659-3.052zm-.881-3.278h-3.3c.659-2.6 1.1-4.409 1.209-5.2a8.757 8.757 0 0 0 .33-1.922c.11.452.22 1.131.44 2.035.22 1.017.44 1.7.55 2.374zM129.914 34l-9.452-9.948a14.71 14.71 0 0 1 0-19.9 12.83 12.83 0 0 1 18.9 0 14.71 14.71 0 0 1 0 19.9zm6.155-18.993a3.162 3.162 0 0 0-2.088-1.357v-.225a2.868 2.868 0 0 0 1.759-1.244 4.267 4.267 0 0 0 .66-2.374 3.563 3.563 0 0 0-1.539-3.165 8.7 8.7 0 0 0-4.726-1.017h-5.386v16.731h6.045a6.138 6.138 0 0 0 4.287-1.357 4.269 4.269 0 0 0 1.539-3.618 3.338 3.338 0 0 0-.551-2.374zm-5.605 3.844h-1.429v-3.5h1.429a2.108 2.108 0 0 1 1.536.448 1.639 1.639 0 0 1 .55 1.244c-.108 1.243-.767 1.808-2.086 1.808zm-1.539-9.835h1.209q1.978 0 1.978 1.357a1.258 1.258 0 0 1-.55 1.131 2.4 2.4 0 0 1-1.429.452h-1.319v-2.94z"
      fill="#fff"></path>
  </symbol>
</svg>