<?xml version="1.0" encoding="utf-8"?>
<!-- Generated by IcoMoon.io -->
<!DOCTYPE svg PUBLIC "-//W3C//DTD SVG 1.1//EN" "http://www.w3.org/Graphics/SVG/1.1/DTD/svg11.dtd">
<svg version="1.1" xmlns="http://www.w3.org/2000/svg" xmlns:xlink="http://www.w3.org/1999/xlink" width="32" height="32" viewBox="0 0 32 32">
<path fill="#444444" d="M23.304 24.008h0.024c-0.008-0.008-0.016-0.016-0.024-0.016v0.016z"></path>
<path fill="#444444" d="M6.728 14.112h-1.104c-0.408 0-0.744 0.328-0.744 0.744s0.328 0.744 0.744 0.744h1.104c0.408 0 0.744-0.328 0.744-0.744s-0.336-0.744-0.744-0.744z"></path>
<path fill="#444444" d="M9.688 14.112h-1.104c-0.408 0-0.744 0.328-0.744 0.744s0.328 0.744 0.744 0.744h1.104c0.408 0 0.744-0.328 0.744-0.744s-0.336-0.744-0.744-0.744z"></path>
<path fill="#444444" d="M12.64 14.112h-1.104c-0.408 0-0.744 0.328-0.744 0.744s0.328 0.744 0.744 0.744h1.104c0.408 0 0.744-0.328 0.744-0.744s-0.336-0.744-0.744-0.744z"></path>
<path fill="#444444" d="M15.6 14.112h-1.104c-0.408 0-0.744 0.328-0.744 0.744s0.328 0.744 0.744 0.744h1.104c0.408 0 0.744-0.328 0.744-0.744s-0.336-0.744-0.744-0.744z"></path>
<path fill="#444444" d="M6.728 16.232h-1.104c-0.408 0-0.744 0.328-0.744 0.744 0 0.408 0.328 0.744 0.744 0.744h1.104c0.408 0 0.744-0.328 0.744-0.744s-0.336-0.744-0.744-0.744z"></path>
<path fill="#444444" d="M9.688 16.232h-1.104c-0.408 0-0.744 0.328-0.744 0.744 0 0.408 0.328 0.744 0.744 0.744h1.104c0.408 0 0.744-0.328 0.744-0.744-0.008-0.416-0.336-0.744-0.744-0.744z"></path>
<path fill="#444444" d="M12.64 16.232h-1.104c-0.408 0-0.744 0.328-0.744 0.744 0 0.408 0.328 0.744 0.744 0.744h1.104c0.408 0 0.744-0.328 0.744-0.744s-0.336-0.744-0.744-0.744z"></path>
<path fill="#444444" d="M15.6 16.232h-1.104c-0.408 0-0.744 0.328-0.744 0.744 0 0.408 0.328 0.744 0.744 0.744h1.104c0.408 0 0.744-0.328 0.744-0.744-0.008-0.416-0.336-0.744-0.744-0.744z"></path>
<path fill="#444444" d="M18.552 16.232h-1.104c-0.408 0-0.744 0.328-0.744 0.744 0 0.408 0.328 0.744 0.744 0.744h1.104c0.408 0 0.744-0.328 0.744-0.744s-0.336-0.744-0.744-0.744z"></path>
<path fill="#444444" d="M6.728 18.352h-1.104c-0.408 0-0.744 0.328-0.744 0.744 0 0.408 0.328 0.744 0.744 0.744h1.104c0.408 0 0.744-0.328 0.744-0.744s-0.336-0.744-0.744-0.744z"></path>
<path fill="#444444" d="M9.688 18.352h-1.104c-0.408 0-0.744 0.328-0.744 0.744 0 0.408 0.328 0.744 0.744 0.744h1.104c0.408 0 0.744-0.328 0.744-0.744-0.008-0.416-0.336-0.744-0.744-0.744z"></path>
<path fill="#444444" d="M12.64 18.352h-1.104c-0.408 0-0.744 0.328-0.744 0.744 0 0.408 0.328 0.744 0.744 0.744h1.104c0.408 0 0.744-0.328 0.744-0.744s-0.336-0.744-0.744-0.744z"></path>
<path fill="#444444" d="M15.6 18.352h-1.104c-0.408 0-0.744 0.328-0.744 0.744 0 0.408 0.328 0.744 0.744 0.744h1.104c0.408 0 0.744-0.328 0.744-0.744-0.008-0.416-0.336-0.744-0.744-0.744z"></path>
<path fill="#444444" d="M18.552 18.352h-1.104c-0.408 0-0.744 0.328-0.744 0.744 0 0.408 0.328 0.744 0.744 0.744h1.104c0.408 0 0.744-0.328 0.744-0.744s-0.336-0.744-0.744-0.744z"></path>
<path fill="#444444" d="M6.728 20.464h-1.104c-0.408 0-0.744 0.328-0.744 0.744s0.328 0.744 0.744 0.744h1.104c0.408 0 0.744-0.328 0.744-0.744s-0.336-0.744-0.744-0.744z"></path>
<path fill="#444444" d="M9.688 20.464h-1.104c-0.408 0-0.744 0.328-0.744 0.744s0.328 0.744 0.744 0.744h1.104c0.408 0 0.744-0.328 0.744-0.744s-0.336-0.744-0.744-0.744z"></path>
<path fill="#444444" d="M12.64 20.464h-1.104c-0.408 0-0.744 0.328-0.744 0.744s0.328 0.744 0.744 0.744h1.104c0.408 0 0.744-0.328 0.744-0.744s-0.336-0.744-0.744-0.744z"></path>
<path fill="#444444" d="M15.6 20.464h-1.104c-0.408 0-0.744 0.328-0.744 0.744s0.328 0.744 0.744 0.744h1.104c0.408 0 0.744-0.328 0.744-0.744s-0.336-0.744-0.744-0.744z"></path>
<path fill="#444444" d="M6.728 22.584h-1.104c-0.408 0-0.744 0.328-0.744 0.744 0 0.408 0.328 0.744 0.744 0.744h1.104c0.408 0 0.744-0.328 0.744-0.744 0-0.408-0.336-0.744-0.744-0.744z"></path>
<path fill="#444444" d="M9.688 22.584h-1.104c-0.408 0-0.744 0.328-0.744 0.744 0 0.408 0.328 0.744 0.744 0.744h1.104c0.408 0 0.744-0.328 0.744-0.744-0.008-0.408-0.336-0.744-0.744-0.744z"></path>
<path fill="#444444" d="M12.64 22.584h-1.104c-0.408 0-0.744 0.328-0.744 0.744 0 0.408 0.328 0.744 0.744 0.744h1.104c0.408 0 0.744-0.328 0.744-0.744 0-0.408-0.336-0.744-0.744-0.744z"></path>
<path fill="#444444" d="M30.32 17.376c-0.056-0.128-0.136-0.248-0.232-0.352-0.016-0.016-0.024-0.040-0.040-0.056l-4.072-4.080c-0.488-0.488-1.272-0.488-1.76 0s-0.488 1.272 0 1.76l1.96 1.96h-5.144c-0.688 0-1.24 0.552-1.24 1.24s0.552 1.24 1.24 1.24h5.144l-1.96 1.96c-0.488 0.488-0.488 1.272 0 1.76 0.24 0.24 0.56 0.36 0.88 0.36s0.632-0.12 0.88-0.36l4.072-4.072c0.016-0.016 0.024-0.040 0.040-0.056 0.096-0.104 0.176-0.216 0.232-0.352 0.12-0.304 0.12-0.648 0-0.952z"></path>
<path fill="#444444" d="M20.408 14.112c-0.408 0-0.744 0.328-0.744 0.744 0 0.184 0.072 0.344 0.184 0.472 0.136 0.16 0.328 0.264 0.56 0.264h1.104c0.256 0 0.472-0.144 0.608-0.344 0.080-0.12 0.136-0.248 0.136-0.4 0-0.408-0.328-0.744-0.744-0.744h-1.104z"></path>
<path fill="#444444" d="M20.408 21.952h1.104c0.408 0 0.744-0.328 0.744-0.744s-0.328-0.744-0.744-0.744h-1.104c-0.408 0-0.744 0.328-0.744 0.744s0.336 0.744 0.744 0.744z"></path>
<path fill="#444444" d="M18.552 20.464h-1.104c-0.408 0-0.744 0.328-0.744 0.744s0.328 0.744 0.744 0.744h1.104c0.408 0 0.744-0.328 0.744-0.744s-0.336-0.744-0.744-0.744z"></path>
<path fill="#444444" d="M18.584 14.112h-1.136c-0.408 0-0.744 0.328-0.744 0.744s0.328 0.744 0.744 0.744h1.136c0.408 0 0.744-0.328 0.744-0.744s-0.336-0.744-0.744-0.744z"></path>
<path fill="#444444" d="M24.024 24.008h-0.6c-0.304 0-0.544 0.248-0.544 0.544v0.784h-0.032v-0.040c-0.024 0.008-0.048 0.024-0.072 0.024h-18.256c-0.248 0-0.528-0.312-0.528-0.752v-12.648h18.552c0.032 0.008 0.056 0.016 0.088 0.016h1.528c0.328 0 0.6-0.272 0.6-0.6v-0.152c0.008 0 0.016 0 0.024 0v-3.176c0-1.016-0.904-1.84-2.008-1.84h-1.88v-0.888c0-0.8-0.656-1.456-1.456-1.456s-1.456 0.656-1.456 1.456v0.896h-8.432v-0.896c0-0.8-0.656-1.456-1.456-1.456s-1.456 0.656-1.456 1.456v0.896h-2.12c-1.112 0-2.008 0.824-2.008 1.84v16.56c0 1.232 0.904 2.24 2.008 2.24h16.416c0.008 0 0.008 0 0.016 0h3.064c0.304 0 0.544-0.248 0.544-0.544v-1.704c0.008-0.312-0.232-0.56-0.536-0.56zM3.992 8.016c0-0.168 0.224-0.352 0.528-0.352h2.12v0.168c0 0.8 0.656 1.456 1.456 1.456s1.456-0.656 1.456-1.456v-0.168h8.432v0.168c0 0.8 0.656 1.456 1.456 1.456s1.456-0.656 1.456-1.456v-0.168h1.88c0.304 0 0.528 0.184 0.528 0.352v2.424h-19.312v-2.424z"></path>
</svg>
