<?xml version="1.0" encoding="utf-8"?>
<!-- Generated by IcoMoon.io -->
<!DOCTYPE svg PUBLIC "-//W3C//DTD SVG 1.1//EN" "http://www.w3.org/Graphics/SVG/1.1/DTD/svg11.dtd">
<svg version="1.1" xmlns="http://www.w3.org/2000/svg" xmlns:xlink="http://www.w3.org/1999/xlink" width="32" height="32" viewBox="0 0 32 32">
<path fill="#444444" d="M12.4 21.4c0 0.6 0.5 1.1 1.1 1.1h5.3c0.6 0 1.1-0.5 1.1-1.1v-0.1c2.7-1 4.1-3.1 4.1-6.1 0-4.8-2.1-10-8-10.1h-0.2c-4.9 0-7.9 3.8-7.9 10.1 0 3.2 1.6 5.3 4.5 6.2zM15.8 6.6h0.2c6.1 0.1 6.6 6.7 6.6 8.7 0 4.3-3.6 5.3-6.6 5.3s-6.6-0.9-6.6-5.3c0-2.7 0.6-8.7 6.4-8.7z"></path>
<path fill="#444444" d="M11.672 15.616c0.476-0.142 1.016 0.257 1.206 0.892s-0.043 1.265-0.519 1.407c-0.476 0.142-1.016-0.257-1.206-0.892s0.043-1.265 0.519-1.407z"></path>
<path fill="#444444" d="M20.656 15.627c0.476 0.142 0.708 0.772 0.519 1.407s-0.73 1.034-1.206 0.892c-0.476-0.142-0.708-0.772-0.519-1.407s0.73-1.034 1.206-0.892z"></path>
<path fill="#444444" d="M16.1 14c2 0 3.8-0.3 5.4-0.7-0.4-2.9-1.9-5.6-5.6-5.7s-5.2 2.7-5.6 5.6c1.8 0.5 3.8 0.8 5.8 0.8zM17.4 9.4c0.2-0.2 0.5-0.3 0.7-0.1 0.1 0 1.4 1.1 1.7 2.5 0.1 0.3-0.1 0.6-0.4 0.6 0 0-0.1 0-0.1 0-0.2 0-0.4-0.2-0.5-0.4-0.2-0.8-1.1-1.7-1.4-1.9-0.2-0.1-0.2-0.5 0-0.7z"></path>
<path fill="#444444" d="M25.2 23.5h-2.9v-0.9c0-0.4-0.3-0.7-0.7-0.7s-0.7 0.3-0.7 0.7v0.9h-9.7v-0.9c0-0.4-0.3-0.7-0.7-0.7s-0.7 0.3-0.7 0.7v0.9h-2.9c-0.4 0-0.7 0.3-0.7 0.7s0.3 0.7 0.7 0.7h18.4c0.4 0 0.7-0.3 0.7-0.7-0.1-0.4-0.4-0.7-0.8-0.7z"></path>
</svg>
