<?xml version="1.0" encoding="utf-8"?>
<!-- Generated by IcoMoon.io -->
<!DOCTYPE svg PUBLIC "-//W3C//DTD SVG 1.1//EN" "http://www.w3.org/Graphics/SVG/1.1/DTD/svg11.dtd">
<svg version="1.1" xmlns="http://www.w3.org/2000/svg" xmlns:xlink="http://www.w3.org/1999/xlink" width="32" height="32" viewBox="0 0 32 32">
<path fill="#444444" d="M27.413 7.68h-22.827c-0.747 0-1.387 0.64-1.387 1.387v15.573c0 0.747 0.64 1.387 1.387 1.387h22.827c0.747 0 1.387-0.64 1.387-1.387v-15.573c0-0.747-0.64-1.387-1.387-1.387zM4.8 24.533v-7.893h22.507v7.893h-22.507zM4.8 13.44v-4.267h22.507v4.267h-22.507z"></path>
<path fill="#444444" d="M25.493 17.92h-6.080c-0.427 0-0.747 0.32-0.747 0.747v4.16c0 0.427 0.32 0.747 0.747 0.747h6.080c0.427 0 0.747-0.32 0.747-0.747v-4.16c0-0.427-0.32-0.747-0.747-0.747zM24.747 21.973h-4.587v-2.667h4.587v2.667z"></path>
</svg>
