<?xml version="1.0" encoding="utf-8"?>
<!-- Generated by IcoMoon.io -->
<!DOCTYPE svg PUBLIC "-//W3C//DTD SVG 1.1//EN" "http://www.w3.org/Graphics/SVG/1.1/DTD/svg11.dtd">
<svg version="1.1" xmlns="http://www.w3.org/2000/svg" xmlns:xlink="http://www.w3.org/1999/xlink" width="32" height="32" viewBox="0 0 32 32">
<path fill="#444444" d="M15.4 16c2.6 0 4.8-2.2 4.8-5s-2-5-4.8-5-4.8 2.2-4.8 5 2.2 5 4.8 5zM15.4 7.8c1.8 0 3.2 1.4 3.2 3.2s-1.4 3.2-3.2 3.2-3.2-1.4-3.2-3.2 1.6-3.2 3.2-3.2z"></path>
<path fill="#444444" d="M20.8 16.6h-10.6c-1.8 0-3.2 1.4-3.2 3v3.8c0 0.4 0.4 0.8 0.8 0.8h15.4c0.4 0 0.8-0.4 0.8-0.8v-4c0-1.6-1.4-2.8-3.2-2.8zM22.4 22.6h-1.2v-1.8c0-0.4-0.4-0.8-0.8-0.8s-0.8 0.4-0.8 0.8v1.8h-8v-1.8c0-0.4-0.4-0.8-0.8-0.8-0.6 0-0.8 0.4-0.8 0.8v1.8h-1.4v-3.2c0-0.6 0.8-1.2 1.6-1.2h10.6c0.8 0 1.6 0.6 1.6 1.2v3.2z"></path>
</svg>
