<?xml version="1.0" encoding="utf-8"?>
<!-- Generated by IcoMoon.io -->
<!DOCTYPE svg PUBLIC "-//W3C//DTD SVG 1.1//EN" "http://www.w3.org/Graphics/SVG/1.1/DTD/svg11.dtd">
<svg version="1.1" xmlns="http://www.w3.org/2000/svg" xmlns:xlink="http://www.w3.org/1999/xlink" width="32" height="32" viewBox="0 0 32 32">
<path fill="#444444" d="M25.7 23.5h-18.4c-0.4 0-0.7 0.3-0.7 0.7s0.3 0.7 0.7 0.7h18.4c0.4 0 0.7-0.3 0.7-0.7s-0.3-0.7-0.7-0.7z"></path>
<path fill="#444444" d="M22.5 16.9c0-0.1-0.1-0.3-0.3-0.3h-2.3c-0.1 0-0.3 0.1-0.3 0.3v1.2c0 0.1 0.1 0.3 0.3 0.3h2.3c0.1 0 0.3-0.1 0.3-0.3v-1.2z"></path>
<path fill="#444444" d="M13.2 16.9c0-0.1-0.1-0.3-0.3-0.3h-2.3c-0.1 0-0.3 0.1-0.3 0.3v1.2c0 0.1 0.1 0.3 0.3 0.3h2.3c0.1 0 0.3-0.1 0.3-0.3v-1.2z"></path>
<path fill="#444444" d="M13.2 13c0 0.2-0.2 0.3-0.4 0.3s-0.4-0.1-0.4-0.3h-0.4c0 0.3 0.3 0.6 0.7 0.6s0.7-0.3 0.7-0.6h-0.2z"></path>
<path fill="#444444" d="M20.4 13c0 0.2-0.2 0.3-0.4 0.3s-0.4-0.1-0.4-0.3h-0.4c0 0.3 0.3 0.6 0.7 0.6s0.7-0.3 0.7-0.6h-0.2z"></path>
<path fill="#444444" d="M16.8 13c0 0.2-0.2 0.3-0.4 0.3s-0.4-0.1-0.4-0.3h-0.4c0 0.3 0.3 0.6 0.7 0.6s0.7-0.3 0.7-0.6h-0.2z"></path>
<path fill="#444444" d="M7.9 15.2h0.4c-0.1 0.2-0.2 0.5-0.2 0.8v4.1c0 0.4 0.3 0.7 0.7 0.7h1.3v0.8c0 0.5 0.4 0.8 0.8 0.8h1c0.5 0 0.8-0.4 0.8-0.8v-0.8h7v0.8c0 0.5 0.4 0.8 0.8 0.8h1c0.5 0 0.8-0.4 0.8-0.8v-0.8h1.7c0.4 0 0.7-0.3 0.7-0.7v-4.2c0-0.3-0.1-0.5-0.2-0.8h0.4c0.6 0 1.1-0.5 1.1-1.1v-0.5c0-0.6-0.5-1.1-1.1-1.1h-1.1c-0.3 0-0.5 0.1-0.7 0.3l-0.6-1.8c-0.1-1.3-1.2-2.4-2.5-2.4h-8c-1.1 0-2 0.9-2.1 2l-0.6 2.2c-0.2-0.1-0.4-0.2-0.6-0.2h-1.1c-0.6 0-1.1 0.5-1.1 1.1v0.5c0.3 0.6 0.8 1.1 1.4 1.1zM24 13.5l1.1 0.1v0.5c0 0 0 0.1-0.1 0.1l-1.1-0.1 0.1-0.6zM14.9 12.8c0-0.8 0.7-1.5 1.5-1.5s1.5 0.7 1.5 1.5c0 0.4-0.2 0.8-0.4 1h-2.1c-0.3-0.2-0.5-0.6-0.5-1zM21.5 12.8c0 0.4-0.2 0.8-0.4 1h-2.1c-0.3-0.3-0.4-0.6-0.4-1 0-0.8 0.7-1.5 1.5-1.5 0.7 0.1 1.4 0.7 1.4 1.5zM9.5 19.4v-3.5c0-0.3 0.2-0.5 0.5-0.5h12.8c0.3 0 0.5 0.2 0.5 0.5v3.5h-13.8zM13.8 13.9h-2.1c-0.3-0.3-0.4-0.6-0.4-1 0-0.8 0.7-1.5 1.5-1.5s1.5 0.7 1.5 1.5c0 0.3-0.2 0.7-0.5 1zM21.1 10.6h-9.6c0 0 0 0 0 0 0-0.3 0.3-0.6 0.6-0.6h8c0.5 0 0.9 0.2 1 0.6zM9 14.1c0 0 0 0 0 0h-1.2l0.1-0.6 1.1 0.1v0.5z"></path>
<path fill="#444444" d="M12.5 12.4c0 0.11-0.090 0.2-0.2 0.2s-0.2-0.090-0.2-0.2c0-0.11 0.090-0.2 0.2-0.2s0.2 0.090 0.2 0.2z"></path>
<path fill="#444444" d="M13.5 12.4c0 0.11-0.090 0.2-0.2 0.2s-0.2-0.090-0.2-0.2c0-0.11 0.090-0.2 0.2-0.2s0.2 0.090 0.2 0.2z"></path>
<path fill="#444444" d="M16.1 12.4c0 0.11-0.090 0.2-0.2 0.2s-0.2-0.090-0.2-0.2c0-0.11 0.090-0.2 0.2-0.2s0.2 0.090 0.2 0.2z"></path>
<path fill="#444444" d="M17.1 12.4c0 0.11-0.090 0.2-0.2 0.2s-0.2-0.090-0.2-0.2c0-0.11 0.090-0.2 0.2-0.2s0.2 0.090 0.2 0.2z"></path>
<path fill="#444444" d="M19.7 12.4c0 0.11-0.090 0.2-0.2 0.2s-0.2-0.090-0.2-0.2c0-0.11 0.090-0.2 0.2-0.2s0.2 0.090 0.2 0.2z"></path>
<path fill="#444444" d="M20.7 12.4c0 0.11-0.090 0.2-0.2 0.2s-0.2-0.090-0.2-0.2c0-0.11 0.090-0.2 0.2-0.2s0.2 0.090 0.2 0.2z"></path>
</svg>
