<?xml version="1.0" encoding="utf-8"?>
<!-- Generated by IcoMoon.io -->
<!DOCTYPE svg PUBLIC "-//W3C//DTD SVG 1.1//EN" "http://www.w3.org/Graphics/SVG/1.1/DTD/svg11.dtd">
<svg version="1.1" xmlns="http://www.w3.org/2000/svg" xmlns:xlink="http://www.w3.org/1999/xlink" width="32" height="32" viewBox="0 0 32 32">
<path fill="#444444" d="M11.5 14.9h9c0.5 0 0.9-0.4 0.9-0.9v-3.4c0-0.5-0.4-0.9-0.9-0.9h-9c-0.5 0-0.9 0.4-0.9 0.9v3.4c0 0.5 0.4 0.9 0.9 0.9zM19.3 10.8c0.4 0 1 0.4 1 1.1v1.4c0 0.3-0.2 0.5-0.5 0.5s-0.5-0.2-0.5-0.5v-1.4c-0.3 0-0.5-0.3-0.5-0.6s0.2-0.6 0.5-0.5z"></path>
<path fill="#444444" d="M13.4 16.9h-2.2c-0.1 0-0.3 0.1-0.3 0.3v0.9c0 0.1 0.1 0.3 0.3 0.3h2.2c0.1 0 0.3-0.1 0.3-0.3v-1c0-0.1-0.1-0.2-0.3-0.2z"></path>
<path fill="#444444" d="M21.1 18v-0.9c0-0.1-0.1-0.3-0.3-0.3h-2.2c-0.1 0-0.3 0.1-0.3 0.3v0.9c0 0.1 0.1 0.3 0.3 0.3h2.2c0.2 0 0.3-0.2 0.3-0.3z"></path>
<path fill="#444444" d="M25.2 23.5h-18.4c-0.4 0-0.7 0.3-0.7 0.7s0.3 0.7 0.7 0.7h18.4c0.4 0 0.7-0.3 0.7-0.7s-0.3-0.7-0.7-0.7z"></path>
<path fill="#444444" d="M6.6 14.8c0 0.4 0.3 0.7 0.7 0.7s0.7-0.3 0.7-0.7v-2.9c0-0.1 0-0.5 0.3-0.8 0.1-0.1 0.1-0.1 0.2-0.1v9c0 0.4 0.3 0.7 0.7 0.7h0.8v0.8c0 0.5 0.4 0.8 0.8 0.8h0.9c0.5 0 0.8-0.4 0.8-0.8v-0.8h6.7v0.8c0 0.5 0.4 0.8 0.8 0.8h0.9c0.5 0 0.8-0.4 0.8-0.8v-0.8h0.9c0.4 0 0.7-0.3 0.7-0.7v-9c0.1 0 0.2 0.1 0.2 0.1 0.2 0.2 0.3 0.6 0.3 0.8v2.9c0 0.4 0.3 0.7 0.7 0.7s0.7-0.3 0.7-0.7v-2.8c0-0.1 0-1.1-0.7-1.8-0.2-0.3-0.6-0.5-1.3-0.6v-1.2c0-1.1-0.9-2-2-2h-11c-1.1 0-2 0.9-2 2v1.2c-0.6 0.1-1 0.4-1.3 0.6-0.7 0.7-0.7 1.7-0.7 1.8v2.8zM22 8.4v11h-12.1v-11c0-0.3 0.2-0.5 0.5-0.5h11c0.4-0.1 0.6 0.2 0.6 0.5z"></path>
</svg>
