<?xml version="1.0" encoding="utf-8"?>
<!-- Generated by IcoMoon.io -->
<!DOCTYPE svg PUBLIC "-//W3C//DTD SVG 1.1//EN" "http://www.w3.org/Graphics/SVG/1.1/DTD/svg11.dtd">
<svg version="1.1" xmlns="http://www.w3.org/2000/svg" xmlns:xlink="http://www.w3.org/1999/xlink" width="32" height="32" viewBox="0 0 32 32">
<path fill="rgb(69, 90, 100)" d="M15.3 18.9l-3.5 3.5v-13.3c0-0.5-0.4-0.9-0.9-0.9s-0.9 0.4-0.9 0.9v13.3l-3.5-3.5c-0.3-0.3-0.9-0.3-1.3 0-0.3 0.3-0.3 0.9 0 1.3l5 5c0.1 0.1 0.2 0.1 0.3 0.2 0.1 0 0.2 0.1 0.3 0.1s0.2 0 0.3-0.1c0.1 0 0.2-0.1 0.3-0.2l5-5c0.3-0.3 0.3-0.9 0-1.3-0.2-0.3-0.7-0.3-1.1 0z"></path>
<path fill="rgb(69, 90, 100)" d="M26.9 12.7l-5-5c-0.2-0.2-0.4-0.3-0.6-0.3s-0.5 0.1-0.6 0.3l-5 5c-0.3 0.3-0.3 0.9 0 1.3 0.3 0.3 0.9 0.3 1.3 0l3.5-3.5v13.3c0 0.5 0.4 0.9 0.9 0.9s0.9-0.4 0.9-0.9v-13.3l3.5 3.5c0.2 0.2 0.4 0.3 0.6 0.3s0.5-0.1 0.6-0.3c0.2-0.4 0.2-0.9-0.1-1.3z"></path>
</svg>
