<?xml version="1.0" encoding="utf-8"?>
<!-- Generated by IcoMoon.io -->
<!DOCTYPE svg PUBLIC "-//W3C//DTD SVG 1.1//EN" "http://www.w3.org/Graphics/SVG/1.1/DTD/svg11.dtd">
<svg version="1.1" xmlns="http://www.w3.org/2000/svg" xmlns:xlink="http://www.w3.org/1999/xlink" width="32" height="32" viewBox="0 0 32 32">
<path fill="#444444" d="M28.9 14.6c0 0-0.1 0 0 0l-8.1 0.2c-0.4-1.5-1.6-2.7-3.2-3.1l-0.1-1.6c0-0.5-0.3-0.9-0.9-1.1-0.1-0.1-0.2-0.1-0.3-0.1h-0.2c-0.1 0-0.2 0-0.3 0.1-0.5 0.2-0.9 0.6-0.9 1.1l-0.2 1.6c-1.7 0.2-3.1 1.5-3.5 3.1l-8.1-0.2c0 0 0 0 0 0-0.8 0-1.4 0.6-1.4 1.4-0.1 0.8 0.5 1.5 1.3 1.5l2.5 0.3c-0.1 0.2-0.1 0.5-0.1 0.7 0 1.1 0.9 2 1.9 2 1.1 0 1.9-0.9 1.9-2 0-0.1 0-0.3 0-0.4 0.7 0 1.3 0.1 2 0.1 0.2 2.1 2 3.8 4.2 3.8h1.4c2.2 0 4-1.7 4.2-3.8 0.6 0 1.2 0 1.9-0.1 0 0.1 0 0.2 0 0.4 0 1.1 0.9 2 1.9 2s1.9-0.9 1.9-2c0-0.2 0-0.5-0.1-0.7l2.7-0.3c0.8-0.1 1.3-0.8 1.3-1.5-0.3-0.9-1-1.4-1.7-1.4zM7.2 19c-0.3 0-0.5-0.3-0.5-0.6s0.2-0.6 0.5-0.6c0.3 0 0.5 0.3 0.5 0.6 0 0.4-0.2 0.6-0.5 0.6zM11.1 16.7c-0.3 0-0.5 0-0.8 0-0.9 0-1.7-0.1-2.5-0.2h-0.1c-0.1 0-0.3-0.1-0.4-0.1 0 0 0 0 0 0v0l-4.1-0.4 8 0.2v0.5zM15.9 10.1c0 0 0.1-0.2 0.2-0.2 0.2 0 0.3 0.1 0.3 0.2l0.1 1.4h-0.8l0.2-1.4zM19.5 17.7c0 1.6-1.3 2.9-2.9 2.9h-1.3c-1.6 0-2.9-1.3-2.9-2.9v-1.9c0-1.6 1.3-2.9 2.9-2.9h1.3c1.6 0 2.9 1.3 2.9 2.9v1.9zM24.6 19c-0.3 0-0.5-0.3-0.5-0.6 0-0.2 0.1-0.4 0.3-0.5 0.1 0 0.2 0 0.4 0 0.2 0.1 0.3 0.3 0.3 0.5-0.1 0.4-0.3 0.6-0.5 0.6zM25.1 16.4c-0.1 0-0.2 0-0.3 0s-0.2 0-0.2 0c-0.2 0-0.4 0-0.6 0.1-1 0.1-2.1 0.2-3.2 0.2v-0.5l8-0.2-3.7 0.4z"></path>
<path fill="#444444" d="M18.1 14c-0.7 0.1-1.5 0.1-2.2 0.1s-1.4 0-2.1-0.1c-0.5 0.4-0.9 1.1-0.9 1.8v1.3c0.7 0.1 1.7 0.2 2.9 0.2 1.3 0 2.4-0.2 3.1-0.3v-1.2c0.1-0.7-0.2-1.4-0.8-1.8zM18 16.8c0 0 0 0 0 0-0.2 0-0.3-0.1-0.3-0.2-0.1-0.7-0.7-1.4-0.7-1.4-0.1-0.1-0.1-0.3 0-0.4s0.3-0.1 0.4 0c0 0 0.7 0.8 0.8 1.7 0.1 0.1 0 0.3-0.2 0.3z"></path>
</svg>
