<?xml version="1.0" encoding="utf-8"?>
<!-- Generated by IcoMoon.io -->
<!DOCTYPE svg PUBLIC "-//W3C//DTD SVG 1.1//EN" "http://www.w3.org/Graphics/SVG/1.1/DTD/svg11.dtd">
<svg version="1.1" xmlns="http://www.w3.org/2000/svg" xmlns:xlink="http://www.w3.org/1999/xlink" width="32" height="32" viewBox="0 0 32 32">
<path fill="#444" d="M15.9 14.6c2.9 0 5.3-2.4 5.3-5.3s-2.4-5.3-5.3-5.3c-2.9 0-5.3 2.4-5.3 5.3s2.4 5.3 5.3 5.3z"></path>
<path fill="#444" d="M23.6 17.1h-15.2c-2.6 0-4.7 1.9-4.7 4.2v5.5c0.1 0.6 0.6 1.2 1.3 1.2h1.4c0.6 0 1.1-0.5 1.1-1.1v-3.4c0-0.4 0.4-0.8 0.8-0.8s0.8 0.4 0.8 0.8v4.5h13.8v-4.6c0-0.4 0.4-0.8 0.8-0.8s0.8 0.4 0.8 0.8v3.4c0 0.6 0.5 1.1 1.1 1.1h1.4c0.7 0 1.2-0.5 1.2-1.2v-5.5c0-2.2-2.1-4.1-4.6-4.1z"></path>
</svg>
