<?xml version="1.0" encoding="utf-8"?>
<!-- Generated by IcoMoon.io -->
<!DOCTYPE svg PUBLIC "-//W3C//DTD SVG 1.1//EN" "http://www.w3.org/Graphics/SVG/1.1/DTD/svg11.dtd">
<svg version="1.1" xmlns="http://www.w3.org/2000/svg" xmlns:xlink="http://www.w3.org/1999/xlink" width="32" height="32" viewBox="0 0 32 32">
<path fill="#444444" d="M6.832 14.112h-1.104c-0.408 0-0.744 0.328-0.744 0.744s0.328 0.744 0.744 0.744h1.104c0.408 0 0.744-0.328 0.744-0.744s-0.336-0.744-0.744-0.744z"></path>
<path fill="#444444" d="M9.792 14.112h-1.104c-0.408 0-0.744 0.328-0.744 0.744s0.328 0.744 0.744 0.744h1.104c0.408 0 0.744-0.328 0.744-0.744s-0.336-0.744-0.744-0.744z"></path>
<path fill="#444444" d="M12.744 14.112h-1.104c-0.408 0-0.744 0.328-0.744 0.744s0.328 0.744 0.744 0.744h1.104c0.408 0 0.744-0.328 0.744-0.744s-0.328-0.744-0.744-0.744z"></path>
<path fill="#444444" d="M15.704 14.112h-1.104c-0.408 0-0.744 0.328-0.744 0.744s0.328 0.744 0.744 0.744h1.104c0.408 0 0.744-0.328 0.744-0.744s-0.336-0.744-0.744-0.744z"></path>
<path fill="#444444" d="M19.4 14.856c0-0.408-0.328-0.744-0.744-0.744h-1.104c-0.408 0-0.744 0.328-0.744 0.744s0.328 0.744 0.744 0.744h1.104c0.416 0 0.744-0.336 0.744-0.744z"></path>
<path fill="#444444" d="M6.832 16.232h-1.104c-0.408 0-0.744 0.328-0.744 0.744 0 0.408 0.328 0.744 0.744 0.744h1.104c0.408 0 0.744-0.328 0.744-0.744s-0.336-0.744-0.744-0.744z"></path>
<path fill="#444444" d="M9.792 16.232h-1.104c-0.408 0-0.744 0.328-0.744 0.744 0 0.408 0.328 0.744 0.744 0.744h1.104c0.408 0 0.744-0.328 0.744-0.744-0.008-0.416-0.336-0.744-0.744-0.744z"></path>
<path fill="#444444" d="M12.744 16.232h-1.104c-0.408 0-0.744 0.328-0.744 0.744 0 0.408 0.328 0.744 0.744 0.744h1.104c0.408 0 0.744-0.328 0.744-0.744s-0.328-0.744-0.744-0.744z"></path>
<path fill="#444444" d="M15.704 16.232h-1.104c-0.408 0-0.744 0.328-0.744 0.744 0 0.408 0.328 0.744 0.744 0.744h1.104c0.408 0 0.744-0.328 0.744-0.744s-0.336-0.744-0.744-0.744z"></path>
<path fill="#444444" d="M6.832 18.352h-1.104c-0.408 0-0.744 0.328-0.744 0.744 0 0.408 0.328 0.744 0.744 0.744h1.104c0.408 0 0.744-0.328 0.744-0.744s-0.336-0.744-0.744-0.744z"></path>
<path fill="#444444" d="M9.792 18.352h-1.104c-0.408 0-0.744 0.328-0.744 0.744 0 0.408 0.328 0.744 0.744 0.744h1.104c0.408 0 0.744-0.328 0.744-0.744-0.008-0.416-0.336-0.744-0.744-0.744z"></path>
<path fill="#444444" d="M12.744 18.352h-1.104c-0.408 0-0.744 0.328-0.744 0.744 0 0.408 0.328 0.744 0.744 0.744h1.104c0.408 0 0.744-0.328 0.744-0.744s-0.328-0.744-0.744-0.744z"></path>
<path fill="#444444" d="M15.704 18.352h-1.104c-0.408 0-0.744 0.328-0.744 0.744 0 0.408 0.328 0.744 0.744 0.744h1.104c0.408 0 0.744-0.328 0.744-0.744s-0.336-0.744-0.744-0.744z"></path>
<path fill="#444444" d="M6.832 20.464h-1.104c-0.408 0-0.744 0.328-0.744 0.744s0.328 0.744 0.744 0.744h1.104c0.408 0 0.744-0.328 0.744-0.744s-0.336-0.744-0.744-0.744z"></path>
<path fill="#444444" d="M9.792 20.464h-1.104c-0.408 0-0.744 0.328-0.744 0.744s0.328 0.744 0.744 0.744h1.104c0.408 0 0.744-0.328 0.744-0.744s-0.336-0.744-0.744-0.744z"></path>
<path fill="#444444" d="M12.744 20.464h-1.104c-0.408 0-0.744 0.328-0.744 0.744s0.328 0.744 0.744 0.744h1.104c0.408 0 0.744-0.328 0.744-0.744s-0.328-0.744-0.744-0.744z"></path>
<path fill="#444444" d="M15.704 20.464h-1.104c-0.408 0-0.744 0.328-0.744 0.744s0.328 0.744 0.744 0.744h1.104c0.408 0 0.744-0.328 0.744-0.744s-0.336-0.744-0.744-0.744z"></path>
<path fill="#444444" d="M16.816 21.208c0 0.408 0.328 0.744 0.744 0.744h1.104c0.408 0 0.744-0.328 0.744-0.744s-0.328-0.744-0.744-0.744h-1.104c-0.416 0-0.744 0.336-0.744 0.744z"></path>
<path fill="#444444" d="M6.832 22.584h-1.104c-0.408 0-0.744 0.328-0.744 0.744 0 0.408 0.328 0.744 0.744 0.744h1.104c0.408 0 0.744-0.328 0.744-0.744 0-0.408-0.336-0.744-0.744-0.744z"></path>
<path fill="#444444" d="M9.792 22.584h-1.104c-0.408 0-0.744 0.328-0.744 0.744 0 0.408 0.328 0.744 0.744 0.744h1.104c0.408 0 0.744-0.328 0.744-0.744-0.008-0.408-0.336-0.744-0.744-0.744z"></path>
<path fill="#444444" d="M12.744 22.584h-1.104c-0.408 0-0.744 0.328-0.744 0.744 0 0.408 0.328 0.744 0.744 0.744h1.104c0.408 0 0.744-0.328 0.744-0.744 0-0.408-0.328-0.744-0.744-0.744z"></path>
<path fill="#444444" d="M28.84 17.712c-0.072-0.616-0.576-1.104-1.216-1.104h-5.368l1.96-1.96c0.488-0.488 0.488-1.272 0-1.76-0.24-0.24-0.56-0.36-0.88-0.36s-0.632 0.12-0.88 0.36l-4.072 4.080c-0.016 0.016-0.024 0.040-0.040 0.056-0.096 0.104-0.176 0.216-0.232 0.352-0.128 0.304-0.128 0.648 0 0.952 0.056 0.128 0.136 0.248 0.232 0.352 0.016 0.016 0.024 0.040 0.040 0.056l4.072 4.080c0.488 0.488 1.272 0.488 1.76 0s0.488-1.272 0-1.76l-1.96-1.96h5.368c0.584 0 1.048-0.416 1.184-0.96 0.024-0.096 0.056-0.184 0.056-0.288 0-0.048-0.024-0.088-0.024-0.136z"></path>
<path fill="#444444" d="M24.496 24.008h-0.6c-0.288 0-0.52 0.232-0.536 0.512 0 0.008-0.008 0.024-0.008 0.032v0.336c-0.096 0.264-0.288 0.432-0.472 0.432h-18.256c-0.248 0-0.528-0.312-0.528-0.752v-12.648h15.96c0.032 0.008 0.056 0.016 0.088 0.016h4.12c0.224 0 0.416-0.128 0.52-0.312 0.040 0.024 0.072 0.064 0.104 0.088v-3.704c0-1.016-0.904-1.84-2.008-1.84h-1.88v-0.888c0-0.8-0.656-1.456-1.456-1.456s-1.456 0.656-1.456 1.456v0.896h-8.432v-0.896c0-0.8-0.656-1.456-1.456-1.456s-1.456 0.656-1.456 1.456v0.896h-2.12c-1.112 0-2.008 0.824-2.008 1.84v16.56c0 1.232 0.904 2.24 2.008 2.24h16.656c0.008 0 0.008 0 0.016 0h3.2c0.304 0 0.544-0.248 0.544-0.544v-1.712c0.008-0.304-0.24-0.552-0.544-0.552zM4.096 8.016c0-0.168 0.224-0.352 0.528-0.352h2.12v0.168c0 0.8 0.656 1.456 1.456 1.456s1.456-0.656 1.456-1.456v-0.168h8.432v0.168c0 0.8 0.656 1.456 1.456 1.456s1.456-0.656 1.456-1.456v-0.168h1.88c0.304 0 0.528 0.184 0.528 0.352v2.424h-19.312v-2.424z"></path>
</svg>
