<?xml version="1.0" encoding="utf-8"?>
<!-- Generated by IcoMoon.io -->
<!DOCTYPE svg PUBLIC "-//W3C//DTD SVG 1.1//EN" "http://www.w3.org/Graphics/SVG/1.1/DTD/svg11.dtd">
<svg version="1.1" xmlns="http://www.w3.org/2000/svg" xmlns:xlink="http://www.w3.org/1999/xlink" width="32" height="32" viewBox="0 0 32 32">
<path fill="#444444" d="M10.1 19.7c-0.2-0.1-0.4-0.3-0.6-0.4 0 0.1-0.1 0.2-0.2 0.2h-2.4c-0.2 0-0.3-0.1-0.3-0.3v-0.9c0-0.2 0.1-0.3 0.3-0.3h1.7c-0.1-0.3-0.2-0.6-0.2-0.9v-0.5c0-0.2 0-0.4 0.1-0.6h-1.3c-0.5 0-1-0.4-1-1v-3.7c0-0.5 0.4-1 1-1h6.6c0.6-0.5 1.4-0.8 2.3-0.8h4v-0.6c0-1.2-1-2.1-2.1-2.1h-11.9c-1.2-0.1-2.1 0.9-2.1 2.1v1.2c-0.7 0.1-1.1 0.4-1.4 0.7-0.7 0.8-0.7 1.8-0.7 1.9v3c0 0.4 0.3 0.8 0.8 0.8s0.8-0.3 0.8-0.8v-3.1c0-0.1 0-0.6 0.3-0.8 0.1-0.1 0.1-0.1 0.2-0.1v9.7c0 0.4 0.3 0.8 0.8 0.8h0.8v0.8c0 0.5 0.4 0.9 0.9 0.9h1c0.5 0 0.9-0.4 0.9-0.9v-0.9h1.8v-2.4z"></path>
<path fill="#444444" d="M28.5 24c0.4 0 0.8-0.3 0.8-0.8v-4.5c0-0.3-0.1-0.6-0.2-0.8h0.4c0.7 0 1.2-0.5 1.2-1.2v-0.5c0-0.7-0.5-1.2-1.2-1.2h-1.1c-0.3 0-0.6 0.1-0.8 0.3l-0.6-1.9c-0.1-1.4-1.3-2.6-2.7-2.6h-8.5c-1.2 0-2.1 0.9-2.2 2.1l-0.6 2.3c-0.2-0.1-0.4-0.2-0.6-0.2h-1.1c-0.7 0-1.2 0.5-1.2 1.2v0.5c0 0.7 0.5 1.2 1.2 1.2h0.4c-0.1 0.2-0.2 0.5-0.2 0.8v4.5c0 0.4 0.3 0.8 0.8 0.8h1.4v0.8c0 0.5 0.4 0.9 0.9 0.9h1.1c0.5 0 0.9-0.4 0.9-0.9v-0.8h7.5v0.8c0 0.5 0.4 0.9 0.9 0.9h1.1c0.5 0 0.9-0.4 0.9-0.9v-0.8h1.5zM15 13.1h10.3l1 3.6h-12.2l0.9-3.6zM13.8 21.1v-1.3c0-0.2 0.1-0.3 0.3-0.3h2.4c0.2 0 0.3 0.1 0.3 0.3v1.3c0 0.2-0.1 0.3-0.3 0.3h-2.4c-0.2 0-0.3-0.1-0.3-0.3zM24.1 21.4c-0.2 0-0.3-0.1-0.3-0.3v-1.3c0-0.2 0.1-0.3 0.3-0.3h2.4c0.2 0 0.3 0.1 0.3 0.3v1.3c0 0.2-0.1 0.3-0.3 0.3h-2.4z"></path>
</svg>
